# xmcd
#
# Track frame offsets:
#	150
#	18943
#	38793
#	53219
#	74277
#	91865
#	109560
#	125613
#	143178
#	163134
#	178324
#	198425
#	215574
#	234442
#	253245
#
# Disc length: 3556 seconds
#
# Revision: 3
# Processed by: cddbd v1.5.2PL0 Copyright (c) Steve Scherf et al.
# Submitted via: EasyCDDAExtractor 15.3.0.1
#
DISCID=d90de20f
DTITLE=Ednita Nazario - Ednita Y Sus Exitos
DYEAR=2005
DGENRE=Latin
TTITLE0=Despues De Tanto
TTITLE1=Ahora Es Tarde Ya
TTITLE2=Mirame
TTITLE3=Lo Que Son Las Cosas
TTITLE4=Tres Deseos
TTITLE5=Eres Libre
TTITLE6=Te Quedas En Mi
TTITLE7=Un Corazon Hecho Pedazos
TTITLE8=Aqui Estoy Yo
TTITLE9=Mio
TTITLE10=Gata Sin Luna
TTITLE11=No Me Digas Adios
TTITLE12=Mas Que Un Amigo
TTITLE13=Metamorfosis
TTITLE14=Vete Vete
EXTD=
EXTT0=
EXTT1=
EXTT2=
EXTT3=
EXTT4=
EXTT5=
EXTT6=
EXTT7=
EXTT8=
EXTT9=
EXTT10=
EXTT11=
EXTT12=
EXTT13=
EXTT14=
PLAYORDER=
